<svg viewBox="0 0 100 100" fill="none" xmlns="http://www.w3.org/2000/svg">
  <!-- Mesh Topology: Core architecture mark for NeuralSwarm -->
  <!-- Connections -->
  <path d="M 38 32 Q 52 29, 68 42" stroke="currentColor" stroke-width="2.2" stroke-linecap="round"/>
  <path d="M 68 42 Q 62 60, 48 72" stroke="currentColor" stroke-width="2.2" stroke-linecap="round"/>
  <path d="M 48 72 Q 35 55, 38 32" stroke="currentColor" stroke-width="2.2" stroke-linecap="round"/>
  <!-- Satellite connections -->
  <path d="M 38 32 Q 24 42, 22 58" stroke="currentColor" stroke-width="1.5" stroke-linecap="round" opacity="0.45"/>
  <path d="M 68 42 Q 80 48, 78 62" stroke="currentColor" stroke-width="1.5" stroke-linecap="round" opacity="0.45"/>
  <path d="M 48 72 Q 52 84, 44 88" stroke="currentColor" stroke-width="1.2" stroke-linecap="round" opacity="0.3"/>
  <path d="M 38 32 Q 46 18, 56 22" stroke="currentColor" stroke-width="1.2" stroke-linecap="round" opacity="0.3"/>
  <!-- Primary nodes -->
  <circle cx="38" cy="32" r="5" fill="currentColor"/>
  <circle cx="68" cy="42" r="5.5" fill="currentColor"/>
  <circle cx="48" cy="72" r="4.5" fill="currentColor"/>
  <!-- Secondary nodes -->
  <circle cx="22" cy="58" r="2.8" fill="currentColor" opacity="0.5"/>
  <circle cx="78" cy="62" r="3" fill="currentColor" opacity="0.55"/>
  <circle cx="44" cy="88" r="2" fill="currentColor" opacity="0.3"/>
  <circle cx="56" cy="22" r="2.2" fill="currentColor" opacity="0.35"/>
</svg>
