<svg viewBox="0 0 100 100" fill="none" xmlns="http://www.w3.org/2000/svg">
  <!-- Swarm Flow: Swarm intelligence in motion -->
  <path d="M 16 74 Q 35 58, 50 50 T 84 30" stroke="currentColor" stroke-width="0.6" opacity="0.18" fill="none"/>
  <!-- Capsule swarm -->
  <g fill="currentColor">
    <rect x="14" y="70" width="9" height="4" rx="2" transform="rotate(-42, 18.5, 72)"/>
    <rect x="24" y="60" width="11" height="4.5" rx="2.25" transform="rotate(-32, 29.5, 62.25)"/>
    <rect x="35" y="52" width="13" height="5" rx="2.5" transform="rotate(-18, 41.5, 54.5)"/>
    <rect x="46" y="46" width="15" height="6" rx="3" transform="rotate(-5, 53.5, 49)"/>
    <rect x="57" y="40" width="14" height="5.5" rx="2.75" transform="rotate(10, 64, 42.75)"/>
    <rect x="67" y="35" width="12" height="4.5" rx="2.25" transform="rotate(25, 73, 37.25)"/>
    <rect x="76" y="31" width="10" height="4" rx="2" transform="rotate(38, 81, 33)"/>
  </g>
  <!-- Trailing dots -->
  <circle cx="10" cy="78" r="1.5" fill="currentColor" opacity="0.4"/>
  <circle cx="6" cy="82" r="1" fill="currentColor" opacity="0.4"/>
  <!-- Leading dot -->
  <circle cx="86" cy="28" r="2.5" fill="currentColor"/>
</svg>
